<?xml version="1.0" standalone="no"?>
<!DOCTYPE svg PUBLIC "-//W3C//DTD SVG 20010904//EN"
 "http://www.w3.org/TR/2001/REC-SVG-20010904/DTD/svg10.dtd">
<svg version="1.0" xmlns="http://www.w3.org/2000/svg"
 width="264.000000pt" height="191.000000pt" viewBox="0 0 264.000000 191.000000"
 preserveAspectRatio="xMidYMid meet">

<g transform="translate(0.000000,191.000000) scale(0.100000,-0.100000)"
fill="#000000" stroke="none">
<path d="M372 1723 l-2 -163 -67 -1 c-111 -2 -143 -16 -40 -18 56 -1 93 -6
100 -13 19 -21 13 -152 -8 -193 -19 -33 -19 -35 1 -77 19 -38 21 -61 19 -190
0 -81 -4 -150 -7 -153 -10 -10 -48 -14 -48 -4 0 5 -11 9 -25 9 -14 0 -25 -4
-25 -10 0 -5 -7 -10 -15 -10 -8 0 -15 -4 -15 -10 0 -6 28 -10 64 -10 75 0 76
-1 70 -114 -4 -88 -7 -96 -44 -96 -16 0 -30 -4 -30 -10 0 -5 -10 -10 -23 -10
-12 0 -29 -9 -37 -20 -8 -11 -22 -20 -32 -20 -10 0 -18 -4 -18 -10 0 -5 -7
-10 -17 -10 -9 0 -31 -11 -49 -25 -18 -14 -38 -25 -44 -25 -16 0 -60 -47 -60
-65 0 -8 5 -15 10 -15 6 0 10 5 10 10 0 6 9 10 21 10 11 0 17 5 14 10 -3 6 0
10 7 10 8 0 20 9 28 20 8 11 22 20 30 20 9 0 21 5 28 12 7 7 12 8 12 3 0 -5 7
1 16 13 8 12 24 22 35 22 11 0 17 5 14 10 -4 6 5 10 19 10 14 0 26 5 26 10 0
6 11 10 25 10 14 0 25 5 25 10 0 6 9 10 20 10 15 0 20 -7 20 -29 0 -17 5 -33
10 -36 6 -4 10 7 10 27 0 55 10 62 81 55 97 -10 103 -11 116 -27 6 -8 15 -12
18 -8 9 8 -11 30 -42 46 -12 7 -47 12 -77 12 -31 0 -56 5 -56 10 0 6 -7 10
-15 10 -18 0 -21 46 -2 53 9 3 9 9 0 28 -12 23 -17 50 -14 77 1 8 23 12 76 12
43 0 75 4 75 10 0 10 -25 13 -97 12 -18 0 -37 5 -42 12 -6 7 -12 75 -13 152
l-3 139 28 3 c15 2 27 -1 27 -7 0 -6 8 -11 18 -11 10 0 22 -4 28 -10 5 -5 24
-10 42 -12 18 -1 41 -10 51 -20 23 -20 34 -13 20 13 -12 24 -61 49 -94 49 -14
0 -25 5 -25 10 0 6 -16 10 -35 10 -19 0 -35 5 -35 10 0 6 -7 10 -15 10 -12 0
-15 9 -11 38 3 20 5 43 5 50 1 6 9 12 19 12 13 0 14 2 4 9 -11 7 -10 10 3 15
9 3 25 6 36 6 19 0 28 6 64 38 20 18 133 16 151 -3 17 -17 54 -20 54 -5 0 6
-8 14 -17 17 -10 4 -20 10 -23 14 -14 20 -92 37 -131 28 -40 -9 -79 -27 -90
-42 -3 -4 -20 -11 -37 -16 -27 -8 -32 -7 -33 7 -1 17 -1 86 0 110 1 8 20 13
59 13 31 1 44 4 27 6 -96 11 -90 6 -91 80 -2 75 -7 120 -17 143 -4 8 -8 38
-10 65 -2 28 -4 -23 -5 -112z"/>
<path d="M830 1556 c0 -146 3 -196 13 -199 6 -3 -9 -6 -35 -6 -41 -1 -48 -4
-48 -21 0 -16 7 -20 35 -20 l35 0 0 -124 c0 -68 -3 -131 -6 -140 -4 -11 -19
-16 -51 -16 -27 0 -42 4 -38 10 3 6 -3 10 -15 10 -18 0 -21 5 -18 33 2 21 -1
31 -9 29 -18 -3 -16 26 1 44 18 17 43 18 49 2 5 -18 -3 -48 -14 -48 -5 0 -9
-4 -9 -10 0 -5 8 -10 19 -10 27 0 47 51 31 80 -6 12 -14 19 -17 16 -3 -3 -14
-1 -24 5 -14 7 -23 5 -40 -12 -18 -18 -21 -30 -17 -69 5 -50 12 -61 64 -98 25
-17 37 -20 63 -12 l31 9 0 -45 c0 -24 5 -44 10 -44 6 0 10 -11 10 -25 0 -27 9
-41 47 -77 12 -12 20 -25 17 -30 -3 -4 5 -8 18 -8 13 0 29 -5 36 -12 9 -9 12
-9 12 0 0 7 5 12 10 12 6 0 10 -7 10 -14 0 -12 6 -13 30 -5 38 14 40 39 2 39
-15 0 -39 8 -52 17 -14 10 -27 18 -30 18 -13 -1 -40 31 -40 47 0 10 -4 18 -9
18 -11 0 -27 101 -23 140 4 40 3 71 -4 147 -3 40 -3 84 0 99 6 24 10 26 64 24
119 -5 213 0 207 10 -3 6 -22 10 -41 10 -19 0 -34 5 -34 10 0 6 -40 10 -99 10
l-99 0 -1 158 c-1 92 -5 158 -11 160 -6 2 -10 21 -10 43 0 21 -4 39 -10 39 -6
0 -10 -71 -10 -194z"/>
<path d="M241 1654 c0 -11 3 -14 6 -6 3 7 2 16 -1 19 -3 4 -6 -2 -5 -13z"/>
<path d="M328 1523 c7 -3 16 -2 19 1 4 3 -2 6 -13 5 -11 0 -14 -3 -6 -6z"/>
<path d="M614 1065 c-10 -19 -27 -38 -37 -41 -36 -11 -97 17 -97 44 0 6 -7 13
-16 16 -21 8 -24 8 -24 -5 0 -5 5 -7 10 -4 6 3 10 -4 10 -17 0 -17 12 -31 45
-51 25 -15 54 -27 64 -27 28 0 76 52 76 82 0 41 -10 42 -31 3z"/>
<path d="M1576 975 c-8 -8 -19 -15 -24 -15 -14 0 -19 -18 -14 -52 4 -25 8 -28
42 -28 21 0 41 6 43 13 4 10 6 10 6 0 1 -8 15 -13 36 -13 19 0 35 -4 35 -10 0
-5 11 -10 25 -10 23 0 31 -13 26 -42 0 -5 6 -8 14 -8 8 0 15 -5 15 -11 0 -6 7
-17 15 -25 13 -14 15 -14 15 1 0 9 -10 25 -22 35 -18 15 -20 21 -11 31 10 10
14 9 18 -3 4 -9 16 -14 31 -12 20 2 24 -2 24 -23 0 -26 21 -53 40 -53 7 0 5 6
-4 16 -20 20 -20 34 -1 34 8 0 15 -4 15 -10 0 -5 7 -10 15 -10 9 0 12 -6 8
-16 -5 -13 0 -15 26 -12 19 1 35 -3 40 -10 12 -20 67 -29 161 -26 75 3 201 19
175 23 -5 1 -4 5 4 10 9 6 -43 9 -136 7 -83 -1 -150 1 -148 4 2 3 0 12 -6 20
-7 13 -9 12 -9 -2 0 -11 -8 -18 -21 -18 -11 0 -18 4 -15 9 3 5 -1 12 -10 15
-14 5 -12 9 7 25 13 11 21 22 17 26 -8 8 -48 -12 -48 -25 0 -6 -12 -10 -26
-10 -17 0 -24 4 -21 13 7 19 -15 34 -45 30 -15 -2 -29 1 -33 7 -3 5 -15 10
-26 10 -11 0 -17 5 -14 10 4 6 -7 10 -24 10 -18 0 -31 5 -31 13 0 8 -14 11
-45 9 -47 -4 -56 5 -30 32 9 8 14 20 13 27 -2 7 8 16 22 20 23 6 22 7 -8 8
-26 1 -35 -4 -39 -19 -3 -11 -9 -20 -14 -20 -5 0 -9 -7 -9 -15 0 -14 -31 -21
-42 -9 -4 3 -2 19 2 35 10 33 8 35 -14 14z"/>
<path d="M1416 964 c-9 -22 -8 -24 9 -24 8 0 15 9 15 20 0 24 -15 27 -24 4z"/>
<path d="M1768 971 c10 -6 5 -10 -17 -14 -22 -5 -31 -12 -31 -25 0 -15 5 -18
25 -14 14 2 25 10 25 17 0 8 9 17 20 20 29 9 24 25 -7 25 -19 0 -24 -3 -15 -9z"/>
<path d="M1470 941 c-7 -11 -17 -18 -22 -15 -4 3 -8 -6 -8 -20 0 -27 -24 -36
-34 -13 -5 10 -7 10 -12 0 -3 -7 -12 -13 -19 -13 -7 0 -15 -9 -18 -20 -3 -11
-14 -20 -24 -20 -13 0 -27 -18 -46 -59 -16 -35 -36 -62 -47 -66 -11 -4 -18
-11 -15 -16 4 -5 2 -9 -3 -9 -5 0 -23 -13 -40 -30 -18 -16 -36 -30 -42 -30 -5
0 -10 -4 -10 -10 0 -5 -9 -10 -20 -10 -11 0 -20 -4 -20 -10 0 -5 -7 -10 -15
-10 -8 0 -15 -3 -15 -8 0 -13 -56 -32 -113 -37 -54 -5 -58 -4 -69 20 -8 19 -8
31 0 50 13 28 15 67 6 103 -4 15 -14 22 -30 22 -24 0 -24 -1 -24 -100 0 -99 0
-100 -24 -100 -14 0 -31 6 -38 13 -21 19 -56 37 -72 37 -8 0 -16 5 -18 12 -3
7 -11 9 -24 4 -16 -7 -13 -10 19 -20 22 -6 35 -14 31 -18 -4 -5 2 -8 14 -8 12
0 22 -4 22 -10 0 -5 9 -10 21 -10 11 0 17 -4 14 -10 -4 -6 7 -10 24 -10 29 0
31 -3 31 -36 0 -21 4 -33 10 -29 6 4 10 -10 10 -34 0 -42 19 -69 21 -29 1 13
2 39 3 58 3 64 11 70 83 70 40 0 62 4 58 10 -4 6 5 10 19 10 14 0 26 4 26 8 0
4 23 16 50 27 28 11 50 23 50 27 0 4 5 8 11 8 12 0 49 38 49 50 0 4 11 12 24
20 14 7 30 27 37 44 14 34 47 68 59 61 4 -3 13 9 20 25 7 16 16 28 20 25 5 -3
15 2 24 10 8 8 26 16 40 17 13 1 22 6 20 10 -5 7 36 13 59 9 5 -1 6 3 2 9 -3
5 -15 10 -26 10 -20 0 -26 24 -9 35 12 7 13 25 2 25 -4 0 -14 -9 -22 -19z
m-623 -463 c-3 -8 -6 -5 -6 6 -1 11 2 17 5 13 3 -3 4 -12 1 -19z"/>
<path d="M1829 929 c-23 -20 -25 -49 -3 -49 8 0 12 5 9 10 -3 6 -1 10 4 10 13
0 51 31 51 42 0 12 -42 4 -61 -13z"/>
<path d="M1900 867 c0 -22 11 -26 36 -15 33 15 30 28 -6 28 -18 0 -30 -5 -30
-13z"/>
<path d="M1511 828 c-1 -10 1 -18 3 -18 2 0 11 -3 20 -6 9 -3 16 -1 16 5 0 6
-6 11 -14 11 -8 0 -17 6 -19 13 -3 7 -6 5 -6 -5z"/>
<path d="M1594 824 c3 -9 6 -18 6 -20 0 -2 9 -4 20 -4 25 0 26 16 1 30 -27 14
-34 13 -27 -6z"/>
<path d="M1660 826 c0 -14 29 -31 38 -22 5 5 -23 36 -32 36 -3 0 -6 -6 -6 -14z"/>
<path d="M1440 810 c0 -5 8 -10 18 -10 15 0 15 -2 2 -11 -13 -9 -13 -10 0 -6
24 6 25 37 1 37 -12 0 -21 -4 -21 -10z"/>
<path d="M1702 799 c-11 -17 -9 -19 13 -19 28 0 31 6 12 25 -11 11 -16 10 -25
-6z"/>
<path d="M1105 790 c-4 -7 -1 -16 6 -21 17 -10 26 8 11 23 -6 6 -12 6 -17 -2z"/>
<path d="M1384 792 c-19 -14 -13 -32 11 -32 14 0 25 3 25 6 0 12 -27 32 -36
26z"/>
<path d="M1570 790 c0 -5 5 -10 10 -10 6 0 10 5 10 10 0 6 -4 10 -10 10 -5 0
-10 -4 -10 -10z"/>
<path d="M80 764 c0 -17 22 -14 28 4 2 7 -3 12 -12 12 -9 0 -16 -7 -16 -16z"/>
<path d="M980 725 c0 -8 4 -15 8 -15 5 0 9 7 9 15 0 8 -4 15 -9 15 -4 0 -8 -7
-8 -15z"/>
<path d="M140 709 c0 -5 6 -9 13 -9 8 0 7 -4 -3 -11 -12 -9 -12 -10 3 -5 10 3
25 6 33 6 9 0 13 4 10 9 -8 12 -56 20 -56 10z"/>
<path d="M1100 700 c0 -5 7 -10 16 -10 8 0 12 5 9 10 -3 6 -10 10 -16 10 -5 0
-9 -4 -9 -10z"/>
<path d="M900 686 c0 -9 40 -13 46 -5 3 5 -6 9 -20 9 -14 0 -26 -2 -26 -4z"/>
<path d="M84 658 c0 -22 12 -24 20 -2 8 21 8 21 -7 21 -7 0 -13 -9 -13 -19z"/>
<path d="M811 664 c0 -11 3 -14 6 -6 3 7 2 16 -1 19 -3 4 -6 -2 -5 -13z"/>
<path d="M28 623 c7 -3 16 -2 19 1 4 3 -2 6 -13 5 -11 0 -14 -3 -6 -6z"/>
<path d="M615 620 c-3 -5 3 -10 14 -10 12 0 21 5 21 10 0 6 -6 10 -14 10 -8 0
-18 -4 -21 -10z"/>
<path d="M1455 540 c13 -21 7 -130 -8 -145 -21 -20 -27 -19 -27 5 0 17 -7 20
-49 20 -41 0 -51 -4 -66 -26 -9 -14 -19 -23 -23 -20 -9 9 -9 55 0 50 4 -3 8 2
8 10 0 10 -9 16 -25 16 -23 0 -25 -4 -25 -44 0 -50 15 -62 58 -45 15 6 43 13
63 15 31 3 38 0 42 -17 3 -12 9 -19 14 -16 4 3 27 2 51 -3 23 -4 42 -3 42 1 0
5 -7 9 -15 9 -8 0 -15 9 -15 21 0 13 -4 18 -12 13 -7 -4 -8 -3 -4 4 4 7 15 12
26 12 10 0 21 7 24 16 6 16 8 16 24 0 10 -9 26 -16 35 -16 11 0 17 -8 17 -25
0 -29 -24 -34 -39 -8 -11 21 -26 11 -18 -12 9 -22 67 -20 68 3 0 9 2 27 3 40
2 17 -2 22 -21 22 -14 0 -21 4 -18 10 4 6 -12 10 -39 10 l-46 0 0 55 c0 43 -3
55 -16 55 -8 0 -12 -4 -9 -10z"/>
<path d="M1776 532 c-2 -4 -1 -14 5 -22 7 -12 9 -10 9 8 0 23 -5 28 -14 14z"/>
<path d="M1797 493 c-3 -5 -1 -17 4 -28 7 -17 8 -17 8 8 1 27 -4 34 -12 20z"/>
<path d="M346 478 c-38 -4 -92 -15 -120 -23 -27 -8 -60 -15 -72 -15 -12 0 -24
-5 -26 -10 -2 -6 -13 -12 -25 -13 -12 0 -19 -5 -17 -9 5 -7 -18 -12 -38 -9 -5
0 -8 -4 -8 -9 0 -6 18 -10 40 -10 22 0 40 5 40 10 0 6 9 10 21 10 11 0 17 5
14 10 -4 6 11 10 39 10 24 0 46 4 48 10 6 17 178 32 253 21 39 -6 76 -11 83
-11 7 0 10 -4 7 -10 -3 -5 0 -10 7 -10 8 0 20 -9 28 -20 8 -11 20 -20 27 -20
7 0 21 -8 31 -17 35 -33 62 -53 72 -53 6 0 10 -4 10 -10 0 -5 9 -10 20 -10 11
0 20 -4 20 -10 0 -5 12 -10 26 -10 14 0 23 4 19 10 -4 6 8 10 29 10 20 0 65
14 99 30 35 17 69 30 75 30 7 0 12 5 12 10 0 6 10 22 23 35 12 13 28 31 35 40
8 10 21 13 37 9 14 -3 25 -2 25 4 0 36 -82 33 -88 -3 -2 -11 -10 -24 -18 -28
-8 -4 -14 -13 -14 -20 0 -7 -24 -23 -53 -36 -28 -13 -65 -30 -81 -37 -16 -8
-55 -17 -88 -21 -61 -6 -65 -5 -116 51 -38 42 -67 66 -79 66 -7 0 -13 4 -13 9
0 5 -15 15 -34 21 -19 6 -36 15 -38 19 -5 13 -138 19 -212 9z"/>
<path d="M1810 424 c0 -10 6 -14 14 -11 8 3 17 0 20 -8 3 -8 13 -11 25 -8 16
4 20 -1 23 -24 l3 -28 95 0 c70 0 104 5 129 18 41 21 128 22 155 2 10 -8 23
-12 27 -9 5 3 9 0 9 -5 0 -6 12 -10 28 -10 16 1 20 3 10 6 -10 2 -18 9 -18 14
0 5 -5 9 -11 9 -6 0 -25 11 -43 25 -18 14 -45 25 -59 25 -15 0 -27 5 -27 10 0
6 -7 10 -16 10 -8 0 -12 -4 -9 -10 3 -5 -3 -10 -14 -10 -12 0 -21 -4 -21 -10
0 -5 -8 -10 -17 -10 -9 0 -24 -6 -32 -14 -20 -17 -63 -27 -76 -18 -6 4 -15 16
-21 27 -7 12 -24 21 -43 23 -17 2 -29 8 -26 13 4 5 -17 9 -49 9 -45 0 -56 -3
-56 -16z m137 -66 c-19 -12 -27 -9 -27 10 0 28 11 34 26 14 9 -13 9 -19 1 -24z"/>
<path d="M1170 391 c0 -22 -4 -43 -10 -46 -5 -3 -10 -22 -10 -41 0 -19 -4 -34
-10 -34 -5 0 -10 -7 -10 -16 0 -19 -37 -54 -57 -54 -8 0 -13 12 -13 31 0 21 4
28 13 23 6 -4 9 -4 5 1 -4 4 2 16 14 26 20 18 20 19 2 19 -21 0 -74 -57 -74
-81 0 -17 35 -59 50 -59 5 0 15 7 24 15 8 8 17 15 21 15 16 0 33 30 40 68 4
23 11 42 16 42 5 0 8 5 7 12 -2 7 13 18 32 25 29 11 30 13 8 10 -27 -4 -52 23
-29 31 6 2 11 8 11 13 0 6 -5 7 -12 3 -8 -5 -9 -2 -5 9 3 9 2 19 -3 22 -6 4
-10 -11 -10 -34z"/>
<path d="M1620 386 c0 -44 7 -46 146 -48 101 -2 109 0 112 18 2 14 1 16 -6 5
-12 -17 -33 -6 -26 13 3 8 1 17 -5 21 -6 3 -11 1 -11 -5 0 -6 -4 -9 -8 -6 -5
3 -15 -4 -22 -15 -8 -10 -25 -19 -37 -19 -19 0 -23 5 -23 29 0 17 -4 33 -10
36 -5 3 -10 -1 -10 -9 0 -20 -30 -56 -47 -56 -12 0 -14 6 -17 50 -1 8 -9 16
-19 18 -13 3 -17 -4 -17 -32z"/>
<path d="M1118 313 c7 -3 16 -2 19 1 4 3 -2 6 -13 5 -11 0 -14 -3 -6 -6z"/>
</g>
</svg>
